<svg xmlns="http://www.w3.org/2000/svg" viewBox="11900 8700 4200 4900">
  <path fill="none" stroke="#112D4E" stroke-width="100" stroke-linecap="round" stroke-linejoin="round" stroke-miterlimit="22.9256" d="M13971.26 13343.63c-1127.74,-515.91 -1881.36,-1767.06 -1881.36,-2763.85l0 -1635.3c726,-49.77 1345.61,-297.47 1883.02,-698.12 537.41,400.65 1151.18,648.35 1877.19,698.12l0 1635.3c0,996.78 -751.11,2247.94 -1878.85,2763.85z"/>
  <path fill="#112D4E" d="M14605.62 10310.7l866.57 0 0 27.96c-135.11,10.99 -218.94,121.09 -313.44,308.49l-822.52 1631.12 -1407.31 -2674.01c-104.18,-197.96 -195.58,-298.99 -321.19,-301.08l0 -38.92 928.17 0 0 39.18c-165.84,7.33 -203.04,116.41 -118.19,281.94l921.05 1797.11 356.13 -738.16c74.88,-155.21 81.61,-272.69 -21.08,-284.6l-68.19 -7.91 0 -41.12z"/>
  <path fill="#112D4E" d="M14336.23 12278.27l-363.12 705.46 -1254.48 -2475.81c-49.01,-96.74 -139.27,-148.94 -250.84,-163.14l1.01 -40.4 829.15 0 23.14 45.05c-163.03,14.91 -154.96,120.14 -64.2,295.77l890.1 1722.77 114.86 -231.02 74.38 141.32z"/>
  <path fill="#112D4E" d="M13658.99 11423.45l884.43 -1877.93c69.34,-147.24 10.71,-236.6 -150.03,-239.56l0 -42.99 886.73 0 -1.32 41.5c-127.58,17.63 -227.1,148.14 -341.2,385.27l-1048.53 2179.02 -230.08 -445.31z"/>
</svg>
